<svg id="Layer_1" data-name="Layer 1" xmlns="http://www.w3.org/2000/svg" xmlns:xlink="http://www.w3.org/1999/xlink" viewBox="0 0 392.65 321.92"><defs><linearGradient id="linear-gradient" x1="344.5" y1="179.22" x2="325.06" y2="99.95" gradientUnits="userSpaceOnUse"><stop offset="0.02" stop-color="#fff" stop-opacity="0"/><stop offset="0.39" stop-color="#fff" stop-opacity="0.39"/><stop offset="1" stop-color="#fff"/></linearGradient><linearGradient id="linear-gradient-2" x1="209.11" y1="113.92" x2="207.55" y2="129.56" gradientUnits="userSpaceOnUse"><stop offset="0.01"/><stop offset="1" stop-opacity="0"/></linearGradient><linearGradient id="linear-gradient-3" x1="151.3" y1="120.09" x2="91.73" y2="132.55" gradientUnits="userSpaceOnUse"><stop offset="0.01"/><stop offset="0.83" stop-opacity="0.07"/><stop offset="1" stop-opacity="0"/></linearGradient><linearGradient id="linear-gradient-4" x1="168.27" y1="156.24" x2="137.36" y2="88.69" xlink:href="#linear-gradient-3"/><linearGradient id="linear-gradient-5" x1="206.88" y1="195.28" x2="191.18" y2="51.71" xlink:href="#linear-gradient"/><linearGradient id="linear-gradient-6" x1="199.55" y1="109.42" x2="182.26" y2="134.14" xlink:href="#linear-gradient-3"/><linearGradient id="linear-gradient-7" x1="241.65" y1="114.72" x2="170.28" y2="216.74" xlink:href="#linear-gradient-3"/><linearGradient id="linear-gradient-8" x1="201.37" y1="182.14" x2="328.71" y2="182.14" xlink:href="#linear-gradient-3"/><linearGradient id="linear-gradient-9" x1="223.49" y1="142.97" x2="380.52" y2="285.98" xlink:href="#linear-gradient-3"/><linearGradient id="linear-gradient-10" x1="79.2" y1="139.72" x2="152.67" y2="187.39" xlink:href="#linear-gradient"/><linearGradient id="linear-gradient-11" x1="86.02" y1="142.73" x2="145.98" y2="181.63" xlink:href="#linear-gradient"/><linearGradient id="linear-gradient-12" x1="87.98" y1="148.27" x2="130.04" y2="175.57" xlink:href="#linear-gradient"/><linearGradient id="linear-gradient-13" x1="264.16" y1="120.63" x2="308.66" y2="130.35" xlink:href="#linear-gradient-3"/><linearGradient id="linear-gradient-14" x1="270.84" y1="122.1" x2="291.47" y2="126.6" xlink:href="#linear-gradient-3"/><linearGradient id="linear-gradient-15" x1="267.65" y1="121.67" x2="305.66" y2="129.98" xlink:href="#linear-gradient-3"/><linearGradient id="linear-gradient-16" x1="299.74" y1="137.6" x2="281.17" y2="164.15" xlink:href="#linear-gradient-3"/><linearGradient id="linear-gradient-17" x1="298.99" y1="139.67" x2="283.61" y2="161.67" xlink:href="#linear-gradient-3"/><clipPath id="clip-path" transform="translate(-14.67 -16.6)"><path d="M199.13,146.34s20.78-1.48,24.27-3.6c2.39-1.45,4.37-8.38,5.38-12.61.47-2,22.41-.85,22.41-.85s-2.81-10.73-3.61-13.83c-.2-.75-25,6-25.18,5.14-2.22-8.36-.6-22-2.24-22.22-2.49-.25-19.82,8.85-19.82,8.85L173.28,136l2.29,1.64c5,3.55,10.08,6.71,16,7.52Z" fill="none"/></clipPath><linearGradient id="linear-gradient-18" x1="202.08" y1="143.3" x2="199.28" y2="134.52" xlink:href="#linear-gradient-2"/><linearGradient id="linear-gradient-19" x1="185.52" y1="136.59" x2="191.76" y2="136.59" xlink:href="#linear-gradient-2"/><linearGradient id="linear-gradient-20" x1="222.15" y1="123.2" x2="254.78" y2="123.2" xlink:href="#linear-gradient-2"/><linearGradient id="linear-gradient-21" x1="245.89" y1="168.88" x2="204.81" y2="130.92" xlink:href="#linear-gradient-2"/><linearGradient id="linear-gradient-22" x1="212.26" y1="118.9" x2="211.27" y2="126.7" xlink:href="#linear-gradient-2"/><linearGradient id="linear-gradient-23" x1="211.34" y1="119.89" x2="212" y2="134.56" xlink:href="#linear-gradient-2"/><linearGradient id="linear-gradient-24" x1="206.79" y1="126.45" x2="209.2" y2="126.45" xlink:href="#linear-gradient-2"/><linearGradient id="linear-gradient-25" x1="209.88" y1="126.41" x2="211.7" y2="126.41" xlink:href="#linear-gradient-2"/><linearGradient id="linear-gradient-26" x1="217.1" y1="127.22" x2="210.37" y2="123.7" xlink:href="#linear-gradient-2"/><linearGradient id="linear-gradient-27" x1="197.05" y1="95.59" x2="198.11" y2="104.25" xlink:href="#linear-gradient-2"/><linearGradient id="linear-gradient-28" x1="211.19" y1="121" x2="222.09" y2="117.26" xlink:href="#linear-gradient-2"/><linearGradient id="linear-gradient-29" x1="240.15" y1="124.34" x2="246.26" y2="122.68" xlink:href="#linear-gradient-2"/><linearGradient id="linear-gradient-30" x1="238.02" y1="125.31" x2="241.93" y2="124.25" xlink:href="#linear-gradient-2"/><linearGradient id="linear-gradient-31" x1="234.37" y1="124.53" x2="238.49" y2="123.41" xlink:href="#linear-gradient-2"/><linearGradient id="linear-gradient-32" x1="229.79" y1="125.41" x2="235.06" y2="123.98" xlink:href="#linear-gradient-2"/><linearGradient id="linear-gradient-33" x1="227.09" y1="126.4" x2="231.41" y2="125.22" xlink:href="#linear-gradient-2"/><linearGradient id="linear-gradient-34" x1="224.16" y1="125.76" x2="227.63" y2="124.82" xlink:href="#linear-gradient-2"/><linearGradient id="linear-gradient-35" x1="217.21" y1="146.97" x2="208.61" y2="132.67" xlink:href="#linear-gradient-2"/><linearGradient id="linear-gradient-36" x1="186.57" y1="146.76" x2="191.31" y2="133.49" xlink:href="#linear-gradient-2"/><linearGradient id="linear-gradient-37" x1="182.2" y1="133.47" x2="190.3" y2="138.83" xlink:href="#linear-gradient-2"/><linearGradient id="linear-gradient-38" x1="191.96" y1="140.99" x2="201.03" y2="140.99" xlink:href="#linear-gradient-2"/><linearGradient id="linear-gradient-39" x1="196.9" y1="141.74" x2="202.82" y2="140.99" xlink:href="#linear-gradient-2"/><linearGradient id="linear-gradient-40" x1="203.06" y1="124.98" x2="185.11" y2="147.66" xlink:href="#linear-gradient"/><linearGradient id="linear-gradient-41" x1="185.69" y1="122.31" x2="191.92" y2="143.12" xlink:href="#linear-gradient"/><linearGradient id="linear-gradient-42" x1="222.76" y1="112.8" x2="210.42" y2="113.92" xlink:href="#linear-gradient-2"/><linearGradient id="linear-gradient-43" x1="211.04" y1="116.08" x2="211.22" y2="109.87" xlink:href="#linear-gradient-2"/><linearGradient id="linear-gradient-44" x1="210.07" y1="108.48" x2="207.11" y2="115.43" xlink:href="#linear-gradient-2"/><linearGradient id="linear-gradient-45" x1="188.53" y1="94.78" x2="194.58" y2="106.5" xlink:href="#linear-gradient-2"/><linearGradient id="linear-gradient-46" x1="191.09" y1="93.46" x2="197.13" y2="105.18" xlink:href="#linear-gradient-2"/><linearGradient id="linear-gradient-47" x1="163.99" y1="328.01" x2="158.07" y2="236.87" xlink:href="#linear-gradient"/><linearGradient id="linear-gradient-48" x1="140.88" y1="112.04" x2="117.89" y2="42.5" xlink:href="#linear-gradient"/></defs><title>Pilot</title><path d="M403.09,180.53c-4.27,12.82-11.54,24.42-19.19,35.56-8.17,11.9-17,23.59-28.33,32.51-13.52,10.62-30,16.82-44.07,26.7-12.37,8.7-22.62,20.06-34.33,29.64a150.34,150.34,0,0,1-106,33.12c-11.11-.9-22.3-3.11-32.17-8.32a64.36,64.36,0,0,1-9.63-6.26c-12.79-9.92-22.55-23.87-34.34-35.27C71.9,265.87,39.65,252,24,224A70.42,70.42,0,0,1,20.64,217c-7.26-17.3-7.64-37.3-2.54-55.44,4.87-17.36,14.44-33.11,26.4-46.67q3.39-3.82,7-7.42c10.68-10.62,22.93-20,31.06-32.67,1.16-1.81,2.24-3.69,3.28-5.59,3.51-6.42,6.63-13.1,11.46-18.56,7.37-8.32,17.94-13,28.23-17.14,20-8.15,40.62-15.68,62.17-16.79,18.82-1,37.46,3.06,55,9.54C268,35.56,290.47,49,316.62,55.94c14.21,3.79,28.16,8.61,40.78,15.6a97.81,97.81,0,0,1,30.82,26,93.27,93.27,0,0,1,17,36.81A87.43,87.43,0,0,1,403.09,180.53Z" transform="translate(-14.67 -16.6)" fill="#24bfe3" opacity="0.25" style="isolation:isolate"/><path d="M405.18,134.36a98.15,98.15,0,0,0-7.12,7.31c-2.27,2.74-4.11,5.86-6.72,8.29-4.7,4.41-11.5,6.12-17.91,5.5s-12.45-3.4-17.79-7c-.65,7.39-8.49,12-15.78,13.41a43.2,43.2,0,0,1-34.52-8.49,26.26,26.26,0,0,1-25,8.89,13.55,13.55,0,0,1-6.84-3.19,18.35,18.35,0,0,1-3.75-6.27q-2.92-6.77-5.83-13.55c-1.54-3.56-3.1-7.22-3.39-11.09-.59-7.91,4.36-15.47,10.92-19.93s14.53-6.33,22.37-7.58l29.72,2.8c-2.23-4.12-1.21-9.61,2.83-12a9.53,9.53,0,0,1,12.39,3c3.35-8.21,7.22-17,15-21.32a20.65,20.65,0,0,1,3.65-1.58,97.81,97.81,0,0,1,30.82,26A93.27,93.27,0,0,1,405.18,134.36Z" transform="translate(-14.67 -16.6)" fill="url(#linear-gradient)"/><path d="M205.28,120.06a12.27,12.27,0,0,0-.19,2.56,3.31,3.31,0,0,0,1,2.29,3,3,0,0,0,2.19.62,5.57,5.57,0,0,0,2.2-.74,2.79,2.79,0,0,0,.83-.65,2.84,2.84,0,0,0,.37-1.93,63.66,63.66,0,0,0-.78-6.59,3.14,3.14,0,0,0-.46-1.44c-.77-1-3.75-2-4.65-.67-.51.74-.24,2-.26,2.79A31.56,31.56,0,0,1,205.28,120.06Z" transform="translate(-14.67 -16.6)" fill="#24bfe3"/><path d="M205.28,120.06a12.27,12.27,0,0,0-.19,2.56,3.31,3.31,0,0,0,1,2.29,3,3,0,0,0,2.19.62,5.57,5.57,0,0,0,2.2-.74,2.79,2.79,0,0,0,.83-.65,2.84,2.84,0,0,0,.37-1.93,63.66,63.66,0,0,0-.78-6.59,3.14,3.14,0,0,0-.46-1.44c-.77-1-3.75-2-4.65-.67-.51.74-.24,2-.26,2.79A31.56,31.56,0,0,1,205.28,120.06Z" transform="translate(-14.67 -16.6)" fill="url(#linear-gradient-2)"/><path d="M140.15,144.42s-40.57-25.79-33.28-34.58c0,0,2.06-5,12.15-3.74s75.34,26.17,75.34,26.17Z" transform="translate(-14.67 -16.6)" fill="#24bfe3"/><path d="M194.36,132.27l-19.52,4.38-34.69,7.78s-40.57-25.8-33.28-34.59a6.52,6.52,0,0,1,3.79-3.1,17,17,0,0,1,8.36-.64C129.12,107.41,194.36,132.27,194.36,132.27Z" transform="translate(-14.67 -16.6)" fill="url(#linear-gradient-3)"/><path d="M194.36,132.27l-19.52,4.38-30.58,4.23s-39.24-25-33.6-34.14a17,17,0,0,1,8.36-.64C129.12,107.41,194.36,132.27,194.36,132.27Z" transform="translate(-14.67 -16.6)" fill="url(#linear-gradient-4)"/><path d="M287.92,147.39a16.1,16.1,0,0,1-2,5.57s-59.57,35.39-94.47,41.63c-31.12,5.55-55.49,7.14-65.71-13.43a42.76,42.76,0,0,1-3.08-8.51,21.89,21.89,0,0,1,.48-9.17c2.11-8.52,9.79-20.73,35.42-26.72,41.62-9.72,99.2-2,100.45-2,1,0,16.84,2.13,21.74,2.79l1.43.19S288.86,140.24,287.92,147.39Z" transform="translate(-14.67 -16.6)" fill="#24bfe3"/><ellipse cx="115.01" cy="161.54" rx="21.18" ry="28.59" fill="#24bfe3"/><path d="M280.79,137.56a4.05,4.05,0,0,1-2.3,3.69c-5.61,3-93.48,16.45-112.54,22.05s-34.4,3.74-34.4,3.74l-8.22-2.61-.15-1c2.11-8.52,9.79-20.73,35.42-26.72,41.62-9.72,99.2-2,100.45-2C260.09,134.77,275.89,136.9,280.79,137.56Z" transform="translate(-14.67 -16.6)" fill="url(#linear-gradient-5)"/><ellipse cx="190.91" cy="121.78" rx="24.55" ry="6.61" fill="url(#linear-gradient-6)"/><path d="M287.92,147.39a16.1,16.1,0,0,1-2,5.57s-59.57,35.39-94.47,41.63c-31.12,5.55-55.49,7.14-65.71-13.43l-.09-2.27s5.24-.75,18.7,3.24,56.82-2,75.77-9,67.71-26.09,67.71-26.09Z" transform="translate(-14.67 -16.6)" fill="url(#linear-gradient-7)"/><path d="M325.51,198.22l-10.76,4.72C287,210.07,232.14,194.05,204.89,185a5.12,5.12,0,0,1,.35-9.83l.85-.22,60.43-15.39,59.19,29a5.16,5.16,0,0,1,1.26.85A5.34,5.34,0,0,1,325.51,198.22Z" transform="translate(-14.67 -16.6)" fill="#24bfe3"/><path d="M325.51,198.22l-10.76,4.72C287,210.07,232.14,194.05,204.89,185a5.12,5.12,0,0,1,.35-9.83l.85-.22,60.43-15.39,59.19,29a5.16,5.16,0,0,1,1.26.85A5.34,5.34,0,0,1,325.51,198.22Z" transform="translate(-14.67 -16.6)" fill="url(#linear-gradient-8)"/><path d="M327,189.38l-9.6,4.21c-27.71,7.13-82.61-8.89-109.87-17.92a5.65,5.65,0,0,1-1.41-.71l60.43-15.39,59.19,29A5.16,5.16,0,0,1,327,189.38Z" transform="translate(-14.67 -16.6)" fill="#24bfe3"/><path d="M327,189.38l-9.6,4.21c-27.71,7.13-82.61-8.89-109.87-17.92a5.65,5.65,0,0,1-1.41-.71l60.43-15.39,59.19,29A5.16,5.16,0,0,1,327,189.38Z" transform="translate(-14.67 -16.6)" fill="url(#linear-gradient-9)"/><ellipse cx="114.72" cy="162.77" rx="25.95" ry="35.03" fill="url(#linear-gradient-10)"/><ellipse cx="115.01" cy="161.54" rx="21.18" ry="28.59" fill="url(#linear-gradient-11)"/><ellipse cx="108.32" cy="161.47" rx="14.86" ry="20.06" fill="url(#linear-gradient-12)"/><path d="M264.78,135.51s13.46-24.42,20.44-24.92.25,29.16.25,29.16Z" transform="translate(-14.67 -16.6)" fill="#24bfe3"/><path d="M285.46,139.75l-17.67-3.62-3-.62s13.45-24.43,20.44-24.92a2,2,0,0,1,1.88.91C290.75,116.46,285.46,139.75,285.46,139.75Z" transform="translate(-14.67 -16.6)" fill="url(#linear-gradient-13)"/><path d="M288.46,140.4l-20.69-4.23,0,0,17.67,3.62s5.29-23.29,1.64-28.25a4.24,4.24,0,0,1,1.11-.26C295.18,110.74,288.46,140.4,288.46,140.4Z" transform="translate(-14.67 -16.6)" fill="url(#linear-gradient-14)"/><path d="M285.46,139.75l-17.67-3.62c.58-1,12.29-22,19.31-24.63C290.75,116.46,285.46,139.75,285.46,139.75Z" transform="translate(-14.67 -16.6)" fill="url(#linear-gradient-15)"/><path d="M277.55,151.9s13.09,4.11,20.94,3S287.83,147,287.83,147Z" transform="translate(-14.67 -16.6)" fill="#24bfe3"/><path d="M300.42,153.92c0,.44-.62.78-1.93,1-7.85,1.12-20.94-3-20.94-3L287.83,147l0,0C288.67,147.35,300.68,151.79,300.42,153.92Z" transform="translate(-14.67 -16.6)" fill="url(#linear-gradient-16)"/><path d="M300.42,153.92c-7.87,1-20.69-3-20.69-3l8.14-3.85C288.67,147.35,300.68,151.79,300.42,153.92Z" transform="translate(-14.67 -16.6)" fill="url(#linear-gradient-17)"/><path d="M171.55,134.64s15.65-12,17.7-12.71,21.81,22.93,21.81,22.93S191.93,152.21,171.55,134.64Z" transform="translate(-14.67 -16.6)" fill="#24bfe3"/><g clip-path="url(#clip-path)"><path d="M204.31,128.82l-3.78,4.23a2.51,2.51,0,0,1-.84.69,2.32,2.32,0,0,1-.78.13,19.4,19.4,0,0,1-2.75-.1,31.55,31.55,0,0,0-3.86-.39,2,2,0,0,0-.88.15,2.11,2.11,0,0,0-.5.39,3.6,3.6,0,0,0-1.4,2.7,3,3,0,0,0,.85,1.74,5.81,5.81,0,0,0,2.35,1.62,12.08,12.08,0,0,0,3.79.55c1.16,0,2.33.08,3.49.07a6.1,6.1,0,0,0,2.62-.47,6.61,6.61,0,0,0,1.72-1.45c.85-.91,1.7-1.81,2.49-2.77a6.91,6.91,0,0,0,1.28-2,6.78,6.78,0,0,0,.27-2.73,7.48,7.48,0,0,0-.46-2.43c-.23-.53-.9-1.67-1.58-1.71S204.73,128.35,204.31,128.82Z" transform="translate(-14.67 -16.6)" fill="#24bfe3"/><path d="M204.31,128.82l-3.78,4.23a2.51,2.51,0,0,1-.84.69,2.32,2.32,0,0,1-.78.13,19.4,19.4,0,0,1-2.75-.1,31.55,31.55,0,0,0-3.86-.39,2,2,0,0,0-.88.15,2.11,2.11,0,0,0-.5.39,3.6,3.6,0,0,0-1.4,2.7,3,3,0,0,0,.85,1.74,5.81,5.81,0,0,0,2.35,1.62,12.08,12.08,0,0,0,3.79.55c1.16,0,2.33.08,3.49.07a6.1,6.1,0,0,0,2.62-.47,6.61,6.61,0,0,0,1.72-1.45c.85-.91,1.7-1.81,2.49-2.77a6.91,6.91,0,0,0,1.28-2,6.78,6.78,0,0,0,.27-2.73,7.48,7.48,0,0,0-.46-2.43c-.23-.53-.9-1.67-1.58-1.71S204.73,128.35,204.31,128.82Z" transform="translate(-14.67 -16.6)" fill="url(#linear-gradient-18)"/><path d="M186.51,137.88a3.37,3.37,0,0,0,1.79.78,10.18,10.18,0,0,0,2,0,1.59,1.59,0,0,0,.68-.13,1.19,1.19,0,0,0,.44-.45,2.41,2.41,0,0,0-1.37-3.56,4.22,4.22,0,0,0-1.28-.11,15.26,15.26,0,0,0-1.65.12,1.9,1.9,0,0,0-1.21.48,2.41,2.41,0,0,0-.35,1.72C185.62,137.2,186.2,137.6,186.51,137.88Z" transform="translate(-14.67 -16.6)" fill="#24bfe3"/><path d="M186.51,137.88a3.37,3.37,0,0,0,1.79.78,10.18,10.18,0,0,0,2,0,1.59,1.59,0,0,0,.68-.13,1.19,1.19,0,0,0,.44-.45,2.41,2.41,0,0,0-1.37-3.56,4.22,4.22,0,0,0-1.28-.11,15.26,15.26,0,0,0-1.65.12,1.9,1.9,0,0,0-1.21.48,2.41,2.41,0,0,0-.35,1.72C185.62,137.2,186.2,137.6,186.51,137.88Z" transform="translate(-14.67 -16.6)" fill="url(#linear-gradient-19)"/><path d="M222.36,125.65c1.84.44,3.53,1.33,5.34,1.9a7.06,7.06,0,0,0,5.51-.12,15.11,15.11,0,0,1,2.55-1.53c1.32-.41,2.72.17,4,.61,2.72.91,5.9,1.14,8.27-.48.63-.43,1.23-1.17,1-1.89s-.93-.84-1.34-1.34c-.79-.94-.24-2.35-.24-3.58,0-.32-.08-.7-.37-.82a.78.78,0,0,0-.4,0,4.37,4.37,0,0,0-2.61,1.09c-.84.76-1.4,1.84-2.39,2.39-1.27.71-2.84.33-4.25,0-2-.47-4.3-.77-6.06.34a10.34,10.34,0,0,1-2.33,1.54c-1.69.51-3.3-.93-5-1.37-2-.51-4,.35-5.88,1.19-.92.42-2.82,2.34-.77,2.49.69.06,1.51-.47,2.21-.57A7.89,7.89,0,0,1,222.36,125.65Z" transform="translate(-14.67 -16.6)" fill="#24bfe3"/><path d="M248.06,126A6.42,6.42,0,0,1,246,127a7.72,7.72,0,0,1-1.86.25,10.51,10.51,0,0,1-2.43-.21,11.52,11.52,0,0,1-1.29-.31c-.19,0-.39-.11-.58-.18-.52-.17-1.06-.37-1.59-.52a6.57,6.57,0,0,0-1.21-.22,3.23,3.23,0,0,0-1.23.13,5.64,5.64,0,0,0-1.63.93c-.3.21-.6.43-.92.61l-.18.09a5.31,5.31,0,0,1-2.22.51,5.83,5.83,0,0,1-1.1,0,10.68,10.68,0,0,1-2-.43l-.24-.08c-.37-.12-.73-.26-1.09-.4a31.74,31.74,0,0,0-4-1.43,7.89,7.89,0,0,0-2.78-.18c-.7.09-1.52.63-2.21.57-2.05-.15-.15-2.07.78-2.49,1.85-.84,3.9-1.7,5.87-1.19a9.27,9.27,0,0,1,1.3.48,14.44,14.44,0,0,0,1.83.79,3.12,3.12,0,0,0,1.68.15l.2,0a4.84,4.84,0,0,0,1.53-.93,8.91,8.91,0,0,1,.8-.61,6.89,6.89,0,0,1,.66-.34,5.83,5.83,0,0,1,2.11-.42,10.13,10.13,0,0,1,1.9.14c.47.08.93.17,1.38.28l.51.12a12.23,12.23,0,0,0,1.59.25,4.13,4.13,0,0,0,1.65-.15,3.32,3.32,0,0,0,.51-.23,4.41,4.41,0,0,0,1.13-1,16.94,16.94,0,0,1,1.26-1.4,4.58,4.58,0,0,1,.89-.62,4.48,4.48,0,0,1,1.73-.49,1,1,0,0,1,.39.05.85.85,0,0,1,.37.82c0,1.23-.55,2.64.24,3.58.4.49,1.12.75,1.34,1.34S248.69,125.6,248.06,126Z" transform="translate(-14.67 -16.6)" fill="url(#linear-gradient-20)"/><path d="M213.22,125.35a12.36,12.36,0,0,1,3.74.36,6.14,6.14,0,0,1,3.15,2,6.8,6.8,0,0,1,1.36,3.88,25.31,25.31,0,0,1-.24,4.17,68,68,0,0,0-.26,9.78c0,.78.49,4.86-.06,5.41-.35.35.34.71-.15.82-4,1-11.1.49-14.86-1.11a4.48,4.48,0,0,1-2.39-1.89c-.51-1,.87-5,1-6.08.5-3.4.87-6.82,1.09-10.24a32.72,32.72,0,0,1,.29-4.65c.23-1.08.93-1.38,1.93-1.64A23.75,23.75,0,0,1,213.22,125.35Z" transform="translate(-14.67 -16.6)" fill="#24bfe3"/><path d="M216.48,143.12a3.87,3.87,0,0,1-.77,1.93,3.25,3.25,0,0,1-1.33.81c-2.38.9-5.08.76-7.35,1.88a1.71,1.71,0,0,0-.42.28,1.38,1.38,0,0,0,0,1.71c.77,1.13,2.27,1.44,3.63,1.65a31.42,31.42,0,0,0,9.81.41.88.88,0,0,0,.49-.19.81.81,0,0,0,.2-.46c.74-3.27.16-6.67.15-10,0-1.93.68-6.79.55-8.72a10.09,10.09,0,0,0-.59-3.23c-.3-.76-1.19-2.45-1.72-.89a69.67,69.67,0,0,0-2,10.41C216.94,140.17,216.76,141.65,216.48,143.12Z" transform="translate(-14.67 -16.6)" fill="url(#linear-gradient-21)"/><path d="M210.18,128c-.56-.09-.88-.65-.63-2,0-.15.07-.3.11-.45s0,0,0-.08h0c.06-.21.13-.42.2-.63a4.52,4.52,0,0,0,.3-1.58,2.66,2.66,0,0,1,.1-1.16,1.86,1.86,0,0,1,.63-.76c.61-.47,2.38-1.35,2.73-.19.15.5.56.43.55.94a4.75,4.75,0,0,0,.39,2.13C214.94,124.94,211.56,128.22,210.18,128Z" transform="translate(-14.67 -16.6)" fill="#f1af8c"/><path d="M209.78,125.22s3.14-1.19,3.75-3.08l-3.35,1.09S210.1,125,209.78,125.22Z" transform="translate(-14.67 -16.6)" fill="url(#linear-gradient-22)"/><path d="M207,123.61a2.83,2.83,0,0,0-.26,1.83.61.61,0,0,0-.81.21,1.73,1.73,0,0,0-.2.9c0,.84,0,1.84.75,2.27a2.33,2.33,0,0,0,.94.24,14.79,14.79,0,0,0,5.94-.71,3.82,3.82,0,0,0,1.08-.51c.48-.36.83-.92,1.41-1,.29-.07.6,0,.9-.09a1.14,1.14,0,0,0,.54-1.79,2.55,2.55,0,0,1-.42-.45,2.93,2.93,0,0,1-.15-.68,1.36,1.36,0,0,0-1.12-.91c-1.4-.25-2.84.79-4.22,1A22.83,22.83,0,0,1,207,123.61Z" transform="translate(-14.67 -16.6)" fill="#24bfe3"/><path d="M216.74,126.7c-.29.07-.6,0-.89.09a1.85,1.85,0,0,0-.81.49,6.32,6.32,0,0,1-.6.56,2.3,2.3,0,0,1-.4.23,4.15,4.15,0,0,1-.69.28,12,12,0,0,1-1.69.45,11,11,0,0,1-1.26.21h0a14.42,14.42,0,0,1-2.08.09c-.3,0-.6,0-.89,0L207,129a1.62,1.62,0,0,1-.56-.19c-.72-.43-.79-1.44-.76-2.27a1.72,1.72,0,0,1,.22-.9.59.59,0,0,1,.8-.21,2.8,2.8,0,0,1,.26-1.82,4.53,4.53,0,0,0,1.38.18l.82,0c.65,0,1.29.05,1.72.05a3.76,3.76,0,0,0,.46,0l.32-.06a12.38,12.38,0,0,0,1.45-.49c.24-.1.47-.18.71-.26a3.6,3.6,0,0,1,1.74-.2,1.36,1.36,0,0,1,1.12.91,2.93,2.93,0,0,0,.15.68,2.61,2.61,0,0,0,.43.45A1.15,1.15,0,0,1,216.74,126.7Z" transform="translate(-14.67 -16.6)" fill="url(#linear-gradient-23)"/><path d="M208.79,125.15a1.41,1.41,0,0,1-.07.89c-.2.29-.65.35-.76.67a.92.92,0,0,0,0,.28c.06.71.32,1.4.38,2.11-.3,0-.6,0-.89,0L207,129a5.43,5.43,0,0,1-.21-2.3,1.17,1.17,0,0,1,.43-.87c.12-.08.26-.12.38-.2A1.09,1.09,0,0,0,208,125a4.76,4.76,0,0,1,.42-1.18l.82,0A2,2,0,0,0,208.79,125.15Z" transform="translate(-14.67 -16.6)" fill="url(#linear-gradient-24)"/><path d="M211,126.71a.64.64,0,0,0,0,.28c.14.63.46,1.2.65,1.81a11,11,0,0,1-1.26.21h0a5.2,5.2,0,0,1-.51-2.12,1.16,1.16,0,0,1,.28-.93c.1-.1.24-.15.34-.26a1.06,1.06,0,0,0,.22-.69,4.62,4.62,0,0,1,.2-1.11,3.76,3.76,0,0,0,.46,0l.32-.06a1.94,1.94,0,0,0-.13,1.21c.06.3.2.63.06.9S211.05,126.37,211,126.71Z" transform="translate(-14.67 -16.6)" fill="url(#linear-gradient-25)"/><path d="M215,127.28a6.32,6.32,0,0,1-.6.56,2.3,2.3,0,0,1-.4.23,5,5,0,0,1-1-1.66,1.17,1.17,0,0,1,0-1c.07-.12.19-.22.25-.35a1.08,1.08,0,0,0,0-.73,5.81,5.81,0,0,1-.15-1c.24-.1.47-.18.71-.26a1.9,1.9,0,0,0,.26,1.06c.15.27.37.53.33.83s-.41.6-.36.94a.59.59,0,0,0,.1.26A10.31,10.31,0,0,0,215,127.28Z" transform="translate(-14.67 -16.6)" fill="url(#linear-gradient-26)"/><path d="M205.44,111.22l.48,8.76a3.53,3.53,0,0,0,3.49,3.34c3.93,0,5.13-2.26,5.73-4s1.14-6.86,0-8.27S207.6,106.16,205.44,111.22Z" transform="translate(-14.67 -16.6)" fill="#f1af8c"/><polygon points="196.8 100 198.08 99.88 198.08 97.51 196.55 97.57 196.8 100" fill="#24bfe3"/><polygon points="196.8 100 198.08 99.88 198.08 97.51 196.55 97.57 196.8 100" fill="url(#linear-gradient-27)"/><path d="M213.63,121.18q.24.87.51,1.74a1.36,1.36,0,0,0,.51.81c.35.22.84.09,1.19.3.2.13.33.36.55.47a2.37,2.37,0,0,0,.85.11c.41,0,.76.3,1.16.37a1.74,1.74,0,0,0,1.76-1.28,5,5,0,0,0,0-2.35l-.09-.61a1,1,0,0,0-.15-.44,1.19,1.19,0,0,0-.31-.23c-2.26-1.3-3.08-4.22-5.15-5.8-.33-.25-1.33-.8-1.73-.35s0,1.82,0,2.31A29.62,29.62,0,0,0,213.63,121.18Z" transform="translate(-14.67 -16.6)" fill="#24bfe3"/><path d="M213.63,121.18q.24.87.51,1.74a1.36,1.36,0,0,0,.51.81c.35.22.84.09,1.19.3.2.13.33.36.55.47a2.37,2.37,0,0,0,.85.11c.41,0,.76.3,1.16.37a1.74,1.74,0,0,0,1.76-1.28,5,5,0,0,0,0-2.35l-.09-.61a1,1,0,0,0-.15-.44,1.19,1.19,0,0,0-.31-.23c-2.26-1.3-3.08-4.22-5.15-5.8-.33-.25-1.33-.8-1.73-.35s0,1.82,0,2.31A29.62,29.62,0,0,0,213.63,121.18Z" transform="translate(-14.67 -16.6)" fill="url(#linear-gradient-28)"/><path d="M215.23,116.12a1.5,1.5,0,0,1,.29-.42,1.64,1.64,0,0,1,.92-.34.69.69,0,0,1,.45,0,.58.58,0,0,1,.24.25,1.35,1.35,0,0,1-.11,1.07,5.21,5.21,0,0,1-.47.83,1.91,1.91,0,0,1-.6.63,1,1,0,0,1-.83.15.16.16,0,0,1-.1,0,.26.26,0,0,1-.05-.12,6.28,6.28,0,0,1-.06-1.06A2.32,2.32,0,0,1,215.23,116.12Z" transform="translate(-14.67 -16.6)" fill="#f1af8c"/><path d="M246,127a7.72,7.72,0,0,1-1.86.25.36.36,0,0,1,0-.09,4.51,4.51,0,0,1-.32-2.07,7.76,7.76,0,0,0-.11-2.1c-.18-.71-.6-1.34-.81-2a.08.08,0,0,1,0,0,16.94,16.94,0,0,1,1.26-1.4,4.58,4.58,0,0,1,.89-.62,3.38,3.38,0,0,0-.18.44,4.49,4.49,0,0,0-.13,2.49,9,9,0,0,1,.31,1.34c.05.63-.17,1.26-.14,1.9a2.38,2.38,0,0,0,.82,1.68C245.73,126.79,245.85,126.87,246,127Z" transform="translate(-14.67 -16.6)" fill="url(#linear-gradient-29)"/><path d="M241.66,127a11.52,11.52,0,0,1-1.29-.31c0-.17,0-.34,0-.51a7.81,7.81,0,0,0-.11-2.11c-.17-.64-.53-1.22-.75-1.85a4.13,4.13,0,0,0,1.65-.15,4,4,0,0,0,.11.83,7.56,7.56,0,0,1,.31,1.33c.06.63-.17,1.26-.14,1.9A2.38,2.38,0,0,0,241.66,127Z" transform="translate(-14.67 -16.6)" fill="url(#linear-gradient-30)"/><path d="M238.2,126a6.57,6.57,0,0,0-1.21-.22,3.07,3.07,0,0,0-.1-.58c-.19-.71-.61-1.35-.81-2a3.09,3.09,0,0,1-.05-1.57c.47.08.93.17,1.38.28l.51.12a4.44,4.44,0,0,0,0,2,9.88,9.88,0,0,1,.31,1.33A3.43,3.43,0,0,1,238.2,126Z" transform="translate(-14.67 -16.6)" fill="url(#linear-gradient-31)"/><path d="M234.13,126.83c-.3.21-.6.43-.92.61l-.18.09v-.14a8.16,8.16,0,0,0-.11-2.1c-.19-.71-.61-1.35-.81-2.06a3.22,3.22,0,0,1-.09-1.38,5.83,5.83,0,0,1,2.11-.42l-.07.19a4.65,4.65,0,0,0-.13,2.48,9.63,9.63,0,0,1,.32,1.34A9.2,9.2,0,0,1,234.13,126.83Z" transform="translate(-14.67 -16.6)" fill="url(#linear-gradient-32)"/><path d="M230.79,127.76a2.64,2.64,0,0,0,0,.28,5.83,5.83,0,0,1-1.1,0v-.18a7.45,7.45,0,0,0-.11-2.11c-.17-.67-.56-1.26-.77-1.92l.2,0a4.84,4.84,0,0,0,1.53-.93,4.58,4.58,0,0,0,.05,1.73,8.87,8.87,0,0,1,.32,1.33C231,126.49,230.75,127.12,230.79,127.76Z" transform="translate(-14.67 -16.6)" fill="url(#linear-gradient-33)"/><path d="M227.45,127.48c-.37-.12-.73-.26-1.09-.4a4,4,0,0,0-.13-1c-.18-.72-.6-1.35-.8-2.06a2.94,2.94,0,0,1-.11-1.14,14.44,14.44,0,0,0,1.83.79,3.83,3.83,0,0,0,.11,1.22,13,13,0,0,1,.31,1.34A6.32,6.32,0,0,1,227.45,127.48Z" transform="translate(-14.67 -16.6)" fill="url(#linear-gradient-34)"/><path d="M215,132.14c-.89,1.69-1.6,3.58-3.12,4.73a7.66,7.66,0,0,1-4.46,1.29c-1.57.05-3.15-.13-4.72,0a3.33,3.33,0,0,0-1.36.34,2.92,2.92,0,0,0-1.15,1.57,3.13,3.13,0,0,0,0,2.71c.65,1,2,1.23,3.26,1.29a50.39,50.39,0,0,0,9-.41,8.37,8.37,0,0,0,3.74-1.19,8.5,8.5,0,0,0,1.72-1.82c1.57-2,3.06-4.25,3.43-6.79.23-1.62,0-5.58-1.93-6.3C217.72,126.89,215.63,130.92,215,132.14Z" transform="translate(-14.67 -16.6)" fill="#24bfe3"/><path d="M215,132.14c-.89,1.69-1.6,3.58-3.12,4.73a7.66,7.66,0,0,1-4.46,1.29c-1.57.05-3.15-.13-4.72,0a3.33,3.33,0,0,0-1.36.34,2.92,2.92,0,0,0-1.15,1.57,3.13,3.13,0,0,0,0,2.71c.65,1,2,1.23,3.26,1.29a50.39,50.39,0,0,0,9-.41,8.37,8.37,0,0,0,3.74-1.19,8.5,8.5,0,0,0,1.72-1.82c1.57-2,3.06-4.25,3.43-6.79.23-1.62,0-5.58-1.93-6.3C217.72,126.89,215.63,130.92,215,132.14Z" transform="translate(-14.67 -16.6)" fill="url(#linear-gradient-35)"/><path d="M187.72,152.44a8.91,8.91,0,1,1,8.51-8.9A8.72,8.72,0,0,1,187.72,152.44Zm0-16a7.11,7.11,0,1,0,6.79,7.1A7,7,0,0,0,187.72,136.44Z" transform="translate(-14.67 -16.6)" fill="#24bfe3"/><path d="M187.72,152.44a8.91,8.91,0,1,1,8.51-8.9A8.72,8.72,0,0,1,187.72,152.44Zm0-16a7.11,7.11,0,1,0,6.79,7.1A7,7,0,0,0,187.72,136.44Z" transform="translate(-14.67 -16.6)" fill="url(#linear-gradient-36)"/><path d="M189,133.34a4,4,0,0,0-1.73-.39,7.71,7.71,0,0,0-1.27.14c-.7.11-1.4.22-2.09.39a3.69,3.69,0,0,0-1.89.94,4.22,4.22,0,0,0-.8,1.79,1.25,1.25,0,0,0-.05.74,1.41,1.41,0,0,0,.24.36l.82,1a1.18,1.18,0,0,0,.3.29,1.34,1.34,0,0,0,.59.13,2.79,2.79,0,0,0,1-.06c.65-.19,1.12-.81,1.78-.93a3.69,3.69,0,0,0,.83-.12,1.25,1.25,0,0,0,.57-1.12,3.71,3.71,0,0,1,.13-1.29.5.5,0,0,1,.44-.35c.87-.12,1.71.47,2.59.42a.53.53,0,0,0,.32-.95A12.73,12.73,0,0,0,189,133.34Z" transform="translate(-14.67 -16.6)" fill="#24bfe3"/><path d="M189,133.34a4,4,0,0,0-1.73-.39,7.71,7.71,0,0,0-1.27.14c-.7.11-1.4.22-2.09.39a3.69,3.69,0,0,0-1.89.94,4.22,4.22,0,0,0-.8,1.79,1.25,1.25,0,0,0-.05.74,1.41,1.41,0,0,0,.24.36l.82,1a1.18,1.18,0,0,0,.3.29,1.34,1.34,0,0,0,.59.13,2.79,2.79,0,0,0,1-.06c.65-.19,1.12-.81,1.78-.93a3.69,3.69,0,0,0,.83-.12,1.25,1.25,0,0,0,.57-1.12,3.71,3.71,0,0,1,.13-1.29.5.5,0,0,1,.44-.35c.87-.12,1.71.47,2.59.42a.53.53,0,0,0,.32-.95A12.73,12.73,0,0,0,189,133.34Z" transform="translate(-14.67 -16.6)" fill="url(#linear-gradient-37)"/><path d="M198.22,138.65c-1.34-.31-2.4-1.47-3.77-1.61-.26,0-.58,0-.68.25a.73.73,0,0,0,0,.44,9.26,9.26,0,0,0,.32,1,4.34,4.34,0,0,0-1.2.25,1.48,1.48,0,0,0-.86.84c-.21.6.13,1.23.28,1.85.21.84.1,1.8.63,2.48a2.76,2.76,0,0,0,2.31.77,8,8,0,0,0,5.07-1.92,2.18,2.18,0,0,0,.5-.59,4.21,4.21,0,0,0-.14-3C200.25,138.63,199,138.84,198.22,138.65Z" transform="translate(-14.67 -16.6)" fill="#24bfe3"/><path d="M198.22,138.65c-1.34-.31-2.4-1.47-3.77-1.61-.26,0-.58,0-.68.25a.73.73,0,0,0,0,.44,9.26,9.26,0,0,0,.32,1,4.34,4.34,0,0,0-1.2.25,1.48,1.48,0,0,0-.86.84c-.21.6.13,1.23.28,1.85.21.84.1,1.8.63,2.48a2.76,2.76,0,0,0,2.31.77,8,8,0,0,0,5.07-1.92,2.18,2.18,0,0,0,.5-.59,4.21,4.21,0,0,0-.14-3C200.25,138.63,199,138.84,198.22,138.65Z" transform="translate(-14.67 -16.6)" fill="url(#linear-gradient-38)"/><path d="M199.65,138.79a.46.46,0,0,0-.29.11.4.4,0,0,0-.1.23,3.44,3.44,0,0,0,.25,1.25,5.43,5.43,0,0,1,.09.69,3,3,0,0,1,0,.73c0,.22-.12.43-.14.66a2,2,0,0,0,.07.65.78.78,0,0,0,.91.79,1.1,1.1,0,0,0,.51-.13.88.88,0,0,0,.24-.27,1.78,1.78,0,0,0,.16-.79,16.55,16.55,0,0,0-.16-3.07c0-.29-.1-.68-.4-.8A2.21,2.21,0,0,0,199.65,138.79Z" transform="translate(-14.67 -16.6)" fill="#24bfe3"/><path d="M199.65,138.79a.46.46,0,0,0-.29.11.4.4,0,0,0-.1.23,3.44,3.44,0,0,0,.25,1.25,5.43,5.43,0,0,1,.09.69,3,3,0,0,1,0,.73c0,.22-.12.43-.14.66a2,2,0,0,0,.07.65.78.78,0,0,0,.91.79,1.1,1.1,0,0,0,.51-.13.88.88,0,0,0,.24-.27,1.78,1.78,0,0,0,.16-.79,16.55,16.55,0,0,0-.16-3.07c0-.29-.1-.68-.4-.8A2.21,2.21,0,0,0,199.65,138.79Z" transform="translate(-14.67 -16.6)" fill="url(#linear-gradient-39)"/></g><path d="M171.62,134.64s15.64-12,17.69-12.71,21.81,22.93,21.81,22.93S192,152.21,171.62,134.64Z" transform="translate(-14.67 -16.6)" fill="url(#linear-gradient-40)"/><path d="M220,139.73" transform="translate(-14.67 -16.6)" fill="#24bfe3"/><path d="M196.23,128.16,176.79,138.5s6.73,4.24,8.22,4.62l18.45-7.36Z" transform="translate(-14.67 -16.6)" fill="url(#linear-gradient-41)"/><path d="M209.45,113c1.35.05,3,.27,3.54,1.48a4.05,4.05,0,0,1,.27,1.63,8.07,8.07,0,0,0,1.37,4.55,4.22,4.22,0,0,0,2.53,1.6,3.94,3.94,0,0,0,1.41,0,1.89,1.89,0,0,0,1.28-.45,1.36,1.36,0,0,0,.32-1.32c-.23-.73-1-1.11-1.46-1.75a4.54,4.54,0,0,1-.35-2.67c0-1-.24-2.09-.18-3.11a7.28,7.28,0,0,0-.31-2.5,7.49,7.49,0,0,0-2.88-4c-2.33-1.62-7.24-2.27-9.19.37a8.77,8.77,0,0,0-1.11,4.08c-.13,1.22-.12,1.78,1.15,2A31,31,0,0,0,209.45,113Z" transform="translate(-14.67 -16.6)" fill="#24bfe3"/><path d="M209.45,113c1.35.05,3,.27,3.54,1.48a4.05,4.05,0,0,1,.27,1.63,8.07,8.07,0,0,0,1.37,4.55,4.22,4.22,0,0,0,2.53,1.6,3.94,3.94,0,0,0,1.41,0,1.89,1.89,0,0,0,1.28-.45,1.36,1.36,0,0,0,.32-1.32c-.23-.73-1-1.11-1.46-1.75a4.54,4.54,0,0,1-.35-2.67c0-1-.24-2.09-.18-3.11a7.28,7.28,0,0,0-.31-2.5,7.49,7.49,0,0,0-2.88-4c-2.33-1.62-7.24-2.27-9.19.37a8.77,8.77,0,0,0-1.11,4.08c-.13,1.22-.12,1.78,1.15,2A31,31,0,0,0,209.45,113Z" transform="translate(-14.67 -16.6)" fill="url(#linear-gradient-42)"/><path d="M205.9,108.23c-1,0-2.15.14-2.67,1a2.41,2.41,0,0,0,.13,2.28,2,2,0,0,0,.68.87,2.48,2.48,0,0,0,1.48.27,24.56,24.56,0,0,1,6.29.53c1.13.28,2.21.69,3.34,1a7.21,7.21,0,0,0,3.45.16.84.84,0,0,0,.74-1,5.35,5.35,0,0,0-.29-1.9,2.23,2.23,0,0,0-.48-.88,2.52,2.52,0,0,0-1.06-.62,16,16,0,0,0-2.55-.68,56.06,56.06,0,0,0-9.83-1.11" transform="translate(-14.67 -16.6)" fill="#24bfe3"/><path d="M205.9,108.23c-1,0-2.15.14-2.67,1a2.41,2.41,0,0,0,.13,2.28,2,2,0,0,0,.68.87,2.48,2.48,0,0,0,1.48.27,24.56,24.56,0,0,1,6.29.53c1.13.28,2.21.69,3.34,1a7.21,7.21,0,0,0,3.45.16.84.84,0,0,0,.74-1,5.35,5.35,0,0,0-.29-1.9,2.23,2.23,0,0,0-.48-.88,2.52,2.52,0,0,0-1.06-.62,16,16,0,0,0-2.55-.68,56.06,56.06,0,0,0-9.83-1.11" transform="translate(-14.67 -16.6)" fill="url(#linear-gradient-43)"/><path d="M213.08,114.69a1.06,1.06,0,0,0-.09-.25c-.59-1.21-2.19-1.42-3.54-1.48a29,29,0,0,1-3.61-.13c-1.24-.2-2.63-.65-2.51-1.81.1,0,1.54-.14,1.64-.14h2.61a7.24,7.24,0,0,1,3.81.77,3.76,3.76,0,0,1,1.5,1.84A2,2,0,0,1,213.08,114.69Z" transform="translate(-14.67 -16.6)" fill="url(#linear-gradient-44)"/><rect x="188.99" y="96.79" width="3.61" height="4.07" rx="1.65" fill="#24bfe3"/><rect x="192.58" y="96.88" width="4.37" height="4.29" rx="1.86" fill="#24bfe3"/><rect x="189.1" y="96.79" width="3.04" height="4.07" rx="1.51" fill="url(#linear-gradient-45)"/><rect x="192.12" y="96.88" width="3.68" height="4.29" rx="1.71" fill="url(#linear-gradient-46)"/><path d="M294.19,279.48a17.82,17.82,0,0,1-5.86,3.93,108.86,108.86,0,0,1-60.14,9.79c-2.44-.3-5.05-.66-7.22.49S217.7,297,216.43,299c-7.17,11.3-20.51,17.49-33.79,19.18s-26.69-.51-39.89-2.72c-2.4,4.52-7.72,6.58-12.7,7.8l-.71.18c-12.79-9.92-22.55-23.87-34.34-35.27C71.9,265.87,39.65,252,24,224A70.42,70.42,0,0,1,20.64,217C29,206.43,42.06,200,57.76,202.5a39,39,0,0,1,30,25.08c.87-9,13.55-12.34,21.27-7.73s11.39,13.67,14.5,22.11a33.83,33.83,0,0,1,55.83,5.33c14.09-13.65,36.34-14.3,55.55-10.36,14.39,2.95,30.29,10,34,24.19,6.71-2.53,14.59-3.47,20.81.11S299,274.11,294.19,279.48Z" transform="translate(-14.67 -16.6)" fill="url(#linear-gradient-47)"/><path d="M228.49,83.51c-.19,2.5-3.05,3.73-5.46,4.42A706.88,706.88,0,0,1,47.85,115c-1.08,0-2.22,0-3.35,0q3.39-3.82,7-7.42c10.68-10.62,22.93-20,31.06-32.67,1.16-1.81,2.24-3.69,3.28-5.59,3.74,0,7.21.46,7.44,1.88a18.66,18.66,0,0,1,31.28-16.44c3.2-7.68,8.48-15.49,16.58-17.39,7.09-1.65,14.6,1.84,19.64,7.1s8.11,12,11.08,18.7c11.07-3.74,24.42,1.29,30.27,11.41,8.13-5.68,21-2.57,25.57,6.2A5.32,5.32,0,0,1,228.49,83.51Z" transform="translate(-14.67 -16.6)" fill="url(#linear-gradient-48)"/></svg>