<?xml version="1.0" encoding="UTF-8" standalone="no"?>
<!-- Generator: Gravit.io -->

<svg
   xmlns:dc="http://purl.org/dc/elements/1.1/"
   xmlns:cc="http://creativecommons.org/ns#"
   xmlns:rdf="http://www.w3.org/1999/02/22-rdf-syntax-ns#"
   xmlns:svg="http://www.w3.org/2000/svg"
   xmlns="http://www.w3.org/2000/svg"
   xmlns:sodipodi="http://sodipodi.sourceforge.net/DTD/sodipodi-0.dtd"
   xmlns:inkscape="http://www.inkscape.org/namespaces/inkscape"
   style="isolation:isolate"
   viewBox="0 0 800 600"
   width="800"
   height="600"
   version="1.1"
   id="svg104"
   sodipodi:docname="bkg.svg"
   inkscape:version="0.92.4 (5da689c313, 2019-01-14)">
  <metadata
     id="metadata110">
    <rdf:RDF>
      <cc:Work
         rdf:about="">
        <dc:format>image/svg+xml</dc:format>
        <dc:type
           rdf:resource="http://purl.org/dc/dcmitype/StillImage" />
      </cc:Work>
    </rdf:RDF>
  </metadata>
  <defs
     id="defs108" />
  <sodipodi:namedview
     pagecolor="#ffffff"
     bordercolor="#666666"
     borderopacity="1"
     objecttolerance="10"
     gridtolerance="10"
     guidetolerance="10"
     inkscape:pageopacity="0"
     inkscape:pageshadow="2"
     inkscape:window-width="1210"
     inkscape:window-height="735"
     id="namedview106"
     showgrid="false"
     inkscape:zoom="0.87"
     inkscape:cx="400"
     inkscape:cy="209.28927"
     inkscape:window-x="70"
     inkscape:window-y="27"
     inkscape:window-maximized="1"
     inkscape:current-layer="svg104" />
  <g
     id="g90"
     transform="translate(116.09196,14.942529)"
     style="opacity:0.16000001">
    <path
       d="m 212.344,288.589 -43.831,-27.416 c -13.104,-8.196 -35.585,-10.701 -50.171,-5.59 L 67.834,273.279 C 53.248,278.39 45.27,270.601 50.031,255.897 l 14.101,-43.559 c 4.76,-14.705 0.289,-36.023 -9.977,-47.576 L 21.645,128.176 C 11.378,116.622 15.587,106.932 31.038,106.55 l 54.702,-1.353 c 15.451,-0.382 35.27,-10.915 44.232,-23.508 l 27.805,-39.07 c 8.962,-12.593 20.792,-11.124 26.401,3.278 l 16.734,42.964 c 5.609,14.401 22.353,29.069 37.369,32.733 l 52.557,12.826 c 15.015,3.664 16.931,13.842 4.275,22.714 l -41.927,29.394 c -12.655,8.872 -22.205,28.602 -21.313,44.032 l 2.597,44.922 c 0.892,15.429 -9.022,21.303 -22.126,13.107 z"
       id="path88"
       inkscape:connector-curvature="0"
       style="fill:#ebebeb" />
  </g>
  <g
     id="g94"
     transform="translate(-51.724138,-31.034483)"
     style="opacity:0.16000001">
    <path
       d="m 631.344,548.15 -43.831,-27.415 c -13.104,-8.196 -35.585,-10.701 -50.171,-5.591 l -50.508,17.697 c -14.586,5.11 -22.564,-2.679 -17.803,-17.383 l 14.101,-43.559 c 4.76,-14.704 0.289,-36.022 -9.977,-47.576 l -32.51,-36.586 c -10.267,-11.553 -6.058,-21.243 9.393,-21.625 l 54.702,-1.353 c 15.451,-0.382 35.27,-10.916 44.232,-23.508 l 27.805,-39.071 c 8.962,-12.592 20.792,-11.123 26.401,3.278 l 16.734,42.964 c 5.609,14.402 22.353,29.069 37.369,32.733 l 52.557,12.826 c 15.015,3.664 16.931,13.842 4.275,22.714 l -41.927,29.394 c -12.655,8.872 -22.205,28.603 -21.313,44.033 l 2.597,44.921 c 0.892,15.43 -9.022,21.303 -22.126,13.107 z"
       id="path92"
       inkscape:connector-curvature="0"
       style="fill:#ebebeb" />
  </g>
  <g
     id="g98"
     transform="rotate(23.501593,184.92586,469.20159)"
     style="opacity:0.16000001">
    <path
       d="M 288.421,529.41 251.119,493.615 C 239.967,482.914 218.473,475.867 203.15,477.888 l -53.059,6.999 c -15.323,2.022 -21.54,-7.234 -13.875,-20.655 l 22.707,-39.757 c 7.665,-13.421 7.646,-35.202 -0.042,-48.61 l -24.346,-42.459 c -7.688,-13.408 -1.587,-22.033 13.616,-19.249 l 53.823,9.857 c 15.203,2.784 36.757,-3.477 48.103,-13.971 l 35.205,-32.563 c 11.346,-10.495 22.625,-6.639 25.173,8.605 l 7.599,45.477 c 2.547,15.245 15.94,33.025 29.889,39.681 l 48.826,23.297 c 13.949,6.656 13.744,17.01 -0.458,23.109 l -47.049,20.203 c -14.202,6.098 -27.583,23.46 -29.864,38.747 l -6.639,44.504 c -2.281,15.286 -13.186,19.009 -24.338,8.307 z"
       id="path96"
       inkscape:connector-curvature="0"
       style="fill:#ebebeb" />
  </g>
  <g
     id="g102"
     transform="translate(-33.931034,15.885058)"
     style="opacity:0.16000001">
    <path
       d="m 631.344,264.514 -43.831,-27.415 c -13.104,-8.196 -35.585,-10.701 -50.171,-5.591 l -50.508,17.697 c -14.586,5.11 -22.564,-2.678 -17.803,-17.383 l 14.101,-43.559 c 4.76,-14.704 0.289,-36.022 -9.977,-47.576 l -32.51,-36.586 c -10.267,-11.553 -6.058,-21.243 9.393,-21.625 l 54.702,-1.353 c 15.451,-0.382 35.27,-10.916 44.232,-23.508 l 27.805,-39.071 c 8.962,-12.592 20.792,-11.123 26.401,3.279 l 16.734,42.963 c 5.609,14.402 22.353,29.069 37.369,32.733 l 52.557,12.826 c 15.015,3.664 16.931,13.842 4.275,22.715 l -41.927,29.393 c -12.655,8.872 -22.205,28.603 -21.313,44.033 l 2.597,44.921 c 0.892,15.43 -9.022,21.303 -22.126,13.107 z"
       id="path100"
       inkscape:connector-curvature="0"
       style="fill:#ebebeb" />
  </g>
  <g
     style="opacity:0.16000001"
     transform="translate(-110.34482,162.06897)"
     id="g114">
    <path
       style="fill:#ebebeb"
       inkscape:connector-curvature="0"
       id="path112"
       d="m 212.344,288.589 -43.831,-27.416 c -13.104,-8.196 -35.585,-10.701 -50.171,-5.59 L 67.834,273.279 C 53.248,278.39 45.27,270.601 50.031,255.897 l 14.101,-43.559 c 4.76,-14.705 0.289,-36.023 -9.977,-47.576 L 21.645,128.176 C 11.378,116.622 15.587,106.932 31.038,106.55 l 54.702,-1.353 c 15.451,-0.382 35.27,-10.915 44.232,-23.508 l 27.805,-39.07 c 8.962,-12.593 20.792,-11.124 26.401,3.278 l 16.734,42.964 c 5.609,14.401 22.353,29.069 37.369,32.733 l 52.557,12.826 c 15.015,3.664 16.931,13.842 4.275,22.714 l -41.927,29.394 c -12.655,8.872 -22.205,28.602 -21.313,44.032 l 2.597,44.922 c 0.892,15.429 -9.022,21.303 -22.126,13.107 z" />
  </g>
  <g
     id="g118"
     transform="translate(-131.03448,-98.85057)"
     style="opacity:0.16000001">
    <path
       d="m 212.344,288.589 -43.831,-27.416 c -13.104,-8.196 -35.585,-10.701 -50.171,-5.59 L 67.834,273.279 C 53.248,278.39 45.27,270.601 50.031,255.897 l 14.101,-43.559 c 4.76,-14.705 0.289,-36.023 -9.977,-47.576 L 21.645,128.176 C 11.378,116.622 15.587,106.932 31.038,106.55 l 54.702,-1.353 c 15.451,-0.382 35.27,-10.915 44.232,-23.508 l 27.805,-39.07 c 8.962,-12.593 20.792,-11.124 26.401,3.278 l 16.734,42.964 c 5.609,14.401 22.353,29.069 37.369,32.733 l 52.557,12.826 c 15.015,3.664 16.931,13.842 4.275,22.714 l -41.927,29.394 c -12.655,8.872 -22.205,28.602 -21.313,44.032 l 2.597,44.922 c 0.892,15.429 -9.022,21.303 -22.126,13.107 z"
       id="path116"
       inkscape:connector-curvature="0"
       style="fill:#ebebeb" />
  </g>
  <g
     style="opacity:0.16000001"
     transform="translate(262.06897,-205.74712)"
     id="g122">
    <path
       style="fill:#ebebeb"
       inkscape:connector-curvature="0"
       id="path120"
       d="m 212.344,288.589 -43.831,-27.416 c -13.104,-8.196 -35.585,-10.701 -50.171,-5.59 L 67.834,273.279 C 53.248,278.39 45.27,270.601 50.031,255.897 l 14.101,-43.559 c 4.76,-14.705 0.289,-36.023 -9.977,-47.576 L 21.645,128.176 C 11.378,116.622 15.587,106.932 31.038,106.55 l 54.702,-1.353 c 15.451,-0.382 35.27,-10.915 44.232,-23.508 l 27.805,-39.07 c 8.962,-12.593 20.792,-11.124 26.401,3.278 l 16.734,42.964 c 5.609,14.401 22.353,29.069 37.369,32.733 l 52.557,12.826 c 15.015,3.664 16.931,13.842 4.275,22.714 l -41.927,29.394 c -12.655,8.872 -22.205,28.602 -21.313,44.032 l 2.597,44.922 c 0.892,15.429 -9.022,21.303 -22.126,13.107 z" />
  </g>
  <g
     id="g126"
     transform="translate(642.52874,-59.770109)"
     style="opacity:0.16000001">
    <path
       d="m 212.344,288.589 -43.831,-27.416 c -13.104,-8.196 -35.585,-10.701 -50.171,-5.59 L 67.834,273.279 C 53.248,278.39 45.27,270.601 50.031,255.897 l 14.101,-43.559 c 4.76,-14.705 0.289,-36.023 -9.977,-47.576 L 21.645,128.176 C 11.378,116.622 15.587,106.932 31.038,106.55 l 54.702,-1.353 c 15.451,-0.382 35.27,-10.915 44.232,-23.508 l 27.805,-39.07 c 8.962,-12.593 20.792,-11.124 26.401,3.278 l 16.734,42.964 c 5.609,14.401 22.353,29.069 37.369,32.733 l 52.557,12.826 c 15.015,3.664 16.931,13.842 4.275,22.714 l -41.927,29.394 c -12.655,8.872 -22.205,28.602 -21.313,44.032 l 2.597,44.922 c 0.892,15.429 -9.022,21.303 -22.126,13.107 z"
       id="path124"
       inkscape:connector-curvature="0"
       style="fill:#ebebeb" />
  </g>
  <g
     style="opacity:0.16000001"
     transform="translate(626.43679,164.36782)"
     id="g130">
    <path
       style="fill:#ebebeb"
       inkscape:connector-curvature="0"
       id="path128"
       d="m 212.344,288.589 -43.831,-27.416 c -13.104,-8.196 -35.585,-10.701 -50.171,-5.59 L 67.834,273.279 C 53.248,278.39 45.27,270.601 50.031,255.897 l 14.101,-43.559 c 4.76,-14.705 0.289,-36.023 -9.977,-47.576 L 21.645,128.176 C 11.378,116.622 15.587,106.932 31.038,106.55 l 54.702,-1.353 c 15.451,-0.382 35.27,-10.915 44.232,-23.508 l 27.805,-39.07 c 8.962,-12.593 20.792,-11.124 26.401,3.278 l 16.734,42.964 c 5.609,14.401 22.353,29.069 37.369,32.733 l 52.557,12.826 c 15.015,3.664 16.931,13.842 4.275,22.714 l -41.927,29.394 c -12.655,8.872 -22.205,28.602 -21.313,44.032 l 2.597,44.922 c 0.892,15.429 -9.022,21.303 -22.126,13.107 z" />
  </g>
  <g
     id="g134"
     transform="translate(604.59771,401.14943)"
     style="opacity:0.16000001">
    <path
       d="m 212.344,288.589 -43.831,-27.416 c -13.104,-8.196 -35.585,-10.701 -50.171,-5.59 L 67.834,273.279 C 53.248,278.39 45.27,270.601 50.031,255.897 l 14.101,-43.559 c 4.76,-14.705 0.289,-36.023 -9.977,-47.576 L 21.645,128.176 C 11.378,116.622 15.587,106.932 31.038,106.55 l 54.702,-1.353 c 15.451,-0.382 35.27,-10.915 44.232,-23.508 l 27.805,-39.07 c 8.962,-12.593 20.792,-11.124 26.401,3.278 l 16.734,42.964 c 5.609,14.401 22.353,29.069 37.369,32.733 l 52.557,12.826 c 15.015,3.664 16.931,13.842 4.275,22.714 l -41.927,29.394 c -12.655,8.872 -22.205,28.602 -21.313,44.032 l 2.597,44.922 c 0.892,15.429 -9.022,21.303 -22.126,13.107 z"
       id="path132"
       inkscape:connector-curvature="0"
       style="fill:#ebebeb" />
  </g>
  <g
     style="opacity:0.16000001"
     transform="translate(305.74714,479.31035)"
     id="g138">
    <path
       style="fill:#ebebeb"
       inkscape:connector-curvature="0"
       id="path136"
       d="m 212.344,288.589 -43.831,-27.416 c -13.104,-8.196 -35.585,-10.701 -50.171,-5.59 L 67.834,273.279 C 53.248,278.39 45.27,270.601 50.031,255.897 l 14.101,-43.559 c 4.76,-14.705 0.289,-36.023 -9.977,-47.576 L 21.645,128.176 C 11.378,116.622 15.587,106.932 31.038,106.55 l 54.702,-1.353 c 15.451,-0.382 35.27,-10.915 44.232,-23.508 l 27.805,-39.07 c 8.962,-12.593 20.792,-11.124 26.401,3.278 l 16.734,42.964 c 5.609,14.401 22.353,29.069 37.369,32.733 l 52.557,12.826 c 15.015,3.664 16.931,13.842 4.275,22.714 l -41.927,29.394 c -12.655,8.872 -22.205,28.602 -21.313,44.032 l 2.597,44.922 c 0.892,15.429 -9.022,21.303 -22.126,13.107 z" />
  </g>
</svg>
